# xmcd
#
# Track frame offsets: 
#        150
#        29850
#        63847
#        79235
#        91270
#        122167
#        143805
#        172072
#        196792
#        211535
#        232107
#        251875
#        268430
#        291612
#
# Disc length: 4309 seconds
#
# Revision: 7
# Processed by: cddbd v1.5.2PL0 Copyright (c) Steve Scherf et al.
# Submitted via: ExactAudioCopyFreeDBPlugin 1.0
#
DISCID=dd10d30e
DTITLE=Various Artist - The Philly Sound:  Kenny Gamble, Leon Huff and 
DTITLE=The Story of Brotherly Love (1966-1976) [box set]
DYEAR=1997
DGENRE=Soul
TTITLE0=The O'Jays - Livin' for the Weekend
TTITLE1=Harold Melvin and The Blue Notes - Wake Up Everybody
TTITLE2=The Jacksons - Enjoy Yourself
TTITLE3=Archie Bell and The Drells - I Could Dance All Night
TTITLE4=The O'Jays - I Love Music
TTITLE5=The Trammps - Love Epidemic
TTITLE6=The O'Jays - Stairway to Heaven
TTITLE7=The Jacksons - Show You the Way to Go
TTITLE8=The People's Choice - Do it Any Way You Wanna
TTITLE9=M.F.S.B. - My One and Only Love
TTITLE10=The O'Jays - Rich Get Richer
TTITLE11=Harold Melvin and The Blue Notes - Hope That We Can Be Together
TTITLE11=Soon (ft Sharon Paige)
TTITLE12=Dee Dee Sharp - Ooh Child
TTITLE13=Bunny Sigler - Love Train
EXTD=disc 3/3
EXTT0=
EXTT1=
EXTT2=
EXTT3=
EXTT4=
EXTT5=
EXTT6=
EXTT7=
EXTT8=
EXTT9=
EXTT10=
EXTT11=
EXTT12=
EXTT13=
PLAYORDER=
